<svg xmlns="http://www.w3.org/2000/svg" viewBox="0 0 11.69 10.11"><title>rain</title><path d="M4.26,7.14H10a1.66,1.66,0,0,0,0-3.32,1.48,1.48,0,0,0-.41.05.2.2,0,0,1-.13,0,.26.26,0,0,1-.07-.11A2.39,2.39,0,0,0,7,1.69,2.43,2.43,0,0,0,4.58,4.11c0,.07,0,.13,0,.2a.14.14,0,0,1,0,.13.15.15,0,0,1-.13,0H4.26a1.34,1.34,0,0,0,0,2.67m0-3v0a2.74,2.74,0,0,1,5.42-.59,1.55,1.55,0,0,1,.31,0,2,2,0,0,1,0,4H4.26a1.66,1.66,0,0,1,0-3.32" transform="translate(-0.28 -0.27)" style="fill:#387592"/><path d="M2.27,2.39l.31,0A2.71,2.71,0,0,1,5.25.27,2.78,2.78,0,0,1,6.83.76a.17.17,0,0,1,0,.23.16.16,0,0,1-.23,0A2.45,2.45,0,0,0,5.25.6a2.39,2.39,0,0,0-2.38,2,.19.19,0,0,1-.07.11.2.2,0,0,1-.13,0,1.9,1.9,0,0,0-.4,0A1.66,1.66,0,0,0,2.09,6a.17.17,0,0,1,.15.18.16.16,0,0,1-.16.15h0a2,2,0,0,1,.21-4" transform="translate(-0.28 -0.27)" style="fill:#387592"/><path d="M4.84,10.13c0,.14.08.25.18.25H5.2c.1,0,.18-.11.18-.25V8.85c0-.14-.08-.25-.18-.25H5c-.1,0-.18.11-.18.25Z" transform="translate(-0.28 -0.27)" style="fill:#387592"/><path d="M7.12,10.13c0,.14.08.25.18.25h.18c.1,0,.18-.11.18-.25V8.85c0-.14-.08-.25-.18-.25H7.3c-.1,0-.18.11-.18.25Z" transform="translate(-0.28 -0.27)" style="fill:#387592"/><path d="M9.4,10.13c0,.14.08.25.18.25h.18c.1,0,.18-.11.18-.25V8.85c0-.14-.08-.25-.18-.25H9.58c-.1,0-.18.11-.18.25Z" transform="translate(-0.28 -0.27)" style="fill:#387592"/></svg>