<svg xmlns="http://www.w3.org/2000/svg" viewBox="0 0 41.05 40.67">
  <path d="M33.74,9.67l2-2a1,1,0,1,0-1.42-1.42l-2,2a1,1,0,0,0,0,1.41A1,1,0,0,0,33.74,9.67ZM8.26,32.32l-2,2a1,1,0,0,0,0,1.41,1,1,0,0,0,1.42,0l2-2a1,1,0,0,0-1.41-1.42Zm0-22.65a1,1,0,0,0,1.41,0,1,1,0,0,0,0-1.41l-2-2A1,1,0,0,0,6.26,7.68ZM21,5a1,1,0,0,0,1-1V1a1,1,0,0,0-2,0V4A1,1,0,0,0,21,5ZM4,20H1a1,1,0,0,0,0,2H4a1,1,0,0,0,0-2ZM35.62,30.41a1,1,0,1,0-1.12,1.66l2.34,1.58a1,1,0,0,0,1.39-.27A1,1,0,0,0,38,32ZM40.06,19l-2.82,0a1,1,0,0,0,0,2L40,21a1,1,0,0,0,0-2ZM29.67,11.28a.87.87,0,0,0-.18-.11,13.62,13.62,0,1,0,.26.24A.91.91,0,0,0,29.67,11.28ZM21,32A11,11,0,1,1,32,21,11,11,0,0,1,21,32Zm1,3.67a1,1,0,0,0-1,1v3a1,1,0,0,0,2,0v-3A1,1,0,0,0,22,35.67Z" style="fill: #efd10c;fill-rule: evenodd"/>
</svg>
