<svg xmlns="http://www.w3.org/2000/svg" viewBox="0 0 54 42">
  <g>
    <path d="M41.68,10A16.49,16.49,0,0,0,10,16h0a10,10,0,0,0,0,20H41a13,13,0,0,0,.68-26ZM41,34H10a8,8,0,0,1,0-16,8.16,8.16,0,0,1,2.12.29A15.08,15.08,0,0,1,12,16.5,14.5,14.5,0,0,1,40.29,12c.24,0,.47,0,.71,0a11,11,0,0,1,0,22Z" style="fill: #fff;fill-rule: evenodd"/>
    <path d="M51,31.3A13,13,0,1,0,29.24,17.5l0,.06a1,1,0,0,0,1.76.92h0A11,11,0,0,1,52,23a10.86,10.86,0,0,1-1,4.56Z" style="fill: #fff;fill-rule: evenodd"/>
  </g>
</svg>
