<svg xmlns="http://www.w3.org/2000/svg" viewBox="0 0 13.62 8.38"><title>cloudy</title><path d="M4.84,8.25H11.5a1.94,1.94,0,1,0,0-3.87,1.88,1.88,0,0,0-.46.06.16.16,0,0,1-.15,0,.2.2,0,0,1-.09-.13,2.81,2.81,0,0,0-5.59.44,1.62,1.62,0,0,0,0,.22.17.17,0,0,1-.06.16.2.2,0,0,1-.15,0H4.84a1.55,1.55,0,1,0,0,3.1m0-3.48v0A3.19,3.19,0,0,1,11.14,4l.36,0a2.32,2.32,0,1,1,0,4.63H4.84a1.93,1.93,0,0,1,0-3.86" transform="translate(-0.2 -0.25)" style="fill:#387592"/><path d="M2.51,2.72a2.19,2.19,0,0,1,.36,0A3.19,3.19,0,0,1,6,.25,3.16,3.16,0,0,1,7.82.83a.19.19,0,0,1-.21.31A2.85,2.85,0,0,0,6,.63,2.81,2.81,0,0,0,3.21,3a.22.22,0,0,1-.08.13.19.19,0,0,1-.15,0A1.92,1.92,0,0,0,.58,5,1.92,1.92,0,0,0,2.31,7a.19.19,0,0,1,.17.21.19.19,0,0,1-.19.17h0a2.32,2.32,0,0,1,.24-4.62" transform="translate(-0.2 -0.25)" style="fill:#387592"/></svg>