<svg xmlns="http://www.w3.org/2000/svg" viewBox="0 0 13.64 8.89"><title>partly-cloudy-night</title><path d="M6,9.45h5.87a1.71,1.71,0,1,0,0-3.41,2,2,0,0,0-.41,0,.15.15,0,0,1-.13,0A.21.21,0,0,1,11.27,6a2.47,2.47,0,0,0-4.92.38,1.27,1.27,0,0,0,0,.2.24.24,0,0,1-.05.14.18.18,0,0,1-.14,0H6A1.37,1.37,0,0,0,6,9.45M6,6.38v0A2.81,2.81,0,0,1,8.83,3.53a2.79,2.79,0,0,1,2.74,2.2,1.77,1.77,0,0,1,.32,0,2,2,0,1,1,0,4.07H6a1.7,1.7,0,0,1,0-3.4" transform="translate(-0.3 -0.89)" style="fill:#387592"/><path d="M3.43,8.9A4.06,4.06,0,1,1,7.8,2.81c.17.27-.21.4-.33.21a3.66,3.66,0,1,0-4,5.5.19.19,0,1,1-.08.38Z" transform="translate(-0.3 -0.89)" style="fill:#387592"/></svg>