<svg xmlns="http://www.w3.org/2000/svg" viewBox="0 0 12.99 9.75"><title>partly-cloudy-day</title><path d="M6.09,10h5.56a1.61,1.61,0,0,0,0-3.22,1.31,1.31,0,0,0-.39.05.16.16,0,0,1-.2-.13,2.34,2.34,0,0,0-4.66.36,1.15,1.15,0,0,0,0,.19.15.15,0,0,1,0,.13.15.15,0,0,1-.13,0H6.09a1.29,1.29,0,1,0,0,2.58m0-2.9v0A2.67,2.67,0,0,1,8.75,4.39a2.64,2.64,0,0,1,2.59,2.09l.31,0a1.93,1.93,0,0,1,0,3.86H6.09a1.61,1.61,0,0,1,0-3.22" transform="translate(-0.59 -0.57)" style="fill:#387592"/><path d="M2.94,5.49A2.56,2.56,0,0,1,5.5,2.93,2.4,2.4,0,0,1,7.58,4a.16.16,0,0,1,0,.22.16.16,0,0,1-.22,0,2.09,2.09,0,0,0-1.82-1A2.24,2.24,0,0,0,4.28,7.37a.15.15,0,0,1,0,.22.16.16,0,0,1-.13.08.16.16,0,0,1-.09,0A2.56,2.56,0,0,1,2.94,5.49" transform="translate(-0.59 -0.57)" style="fill:#387592"/><path d="M5.46,2.15A.16.16,0,0,1,5.31,2V.72A.15.15,0,0,1,5.46.57a.16.16,0,0,1,.16.15V2a.16.16,0,0,1-.16.16" transform="translate(-0.59 -0.57)" style="fill:#387592"/><path d="M3.73,2.64a.11.11,0,0,1-.08,0,.16.16,0,0,1-.14-.07L2.85,1.51a.14.14,0,0,1,0-.21.15.15,0,0,1,.22.05l.66,1.07a.15.15,0,0,1,0,.22" transform="translate(-0.59 -0.57)" style="fill:#387592"/><path d="M2.42,4a.1.1,0,0,1-.07,0L1.23,3.36a.15.15,0,0,1-.06-.22.16.16,0,0,1,.21-.06l1.12.59a.17.17,0,0,1,.06.22A.16.16,0,0,1,2.42,4" transform="translate(-0.59 -0.57)" style="fill:#387592"/><path d="M.75,5.27H2a.16.16,0,0,1,.16.15A.16.16,0,0,1,2,5.59H.75a.16.16,0,0,1,0-.32" transform="translate(-0.59 -0.57)" style="fill:#387592"/><path d="M1.25,7.56,2.36,7A.16.16,0,0,1,2.57,7a.15.15,0,0,1-.06.21L1.4,7.84l-.08,0a.17.17,0,0,1-.14-.08.16.16,0,0,1,.07-.22" transform="translate(-0.59 -0.57)" style="fill:#387592"/><path d="M9.68,3.31l-1.11.61-.08,0a.17.17,0,0,1-.14-.08.16.16,0,0,1,.07-.22L9.53,3a.14.14,0,0,1,.21.06.14.14,0,0,1-.06.21" transform="translate(-0.59 -0.57)" style="fill:#387592"/><path d="M3.5,8.28a.16.16,0,0,1,.22,0,.17.17,0,0,1,0,.22L3.1,9.52A.17.17,0,0,1,3,9.6a.11.11,0,0,1-.08,0,.15.15,0,0,1,0-.22L3.5,8.28Z" transform="translate(-0.59 -0.57)" style="fill:#387592"/><path d="M7.43,2.59a.16.16,0,0,1-.14.08l-.08,0a.15.15,0,0,1,0-.21l.67-1.08a.17.17,0,0,1,.22-.05.16.16,0,0,1,0,.22L7.43,2.59Z" transform="translate(-0.59 -0.57)" style="fill:#387592"/></svg>