<svg xmlns="http://www.w3.org/2000/svg" viewBox="0 0 65 55">
  <g>
    <path d="M8.26,9.67a1,1,0,0,0,1.41,0,1,1,0,0,0,0-1.41l-2-2A1,1,0,0,0,6.26,7.68ZM35.74,6.26a1,1,0,0,0-1.42,0l-2,2a1,1,0,0,0,0,1.41,1,1,0,0,0,1.41,0l2-2A1,1,0,0,0,35.74,6.26ZM21,5a1,1,0,0,0,1-1V1a1,1,0,0,0-2,0V4A1,1,0,0,0,21,5ZM4,20H1a1,1,0,0,0,0,2H4a1,1,0,0,0,0-2ZM8.26,32.32l-2,2a1,1,0,0,0,1.42,1.41l2-2a1,1,0,0,0-1.41-1.42ZM29.41,11.11A13,13,0,0,0,11.09,29.37a.93.93,0,0,0,.22.27l0,0h0l0,0a1,1,0,0,0,1.4-.18,1,1,0,0,0-.15-1.37l0,0A11,11,0,0,1,28.26,12.75l0,0a1,1,0,0,0,1.38-1.45A1.45,1.45,0,0,0,29.41,11.11Z" style="fill: #efd10c;fill-rule: evenodd"/>
    <path d="M52.68,23A16.49,16.49,0,0,0,21,29h0a10,10,0,0,0,0,20H52a13,13,0,0,0,.68-26ZM52,47H21a8,8,0,0,1,0-16,8.16,8.16,0,0,1,2.12.29A15.08,15.08,0,0,1,23,29.5,14.5,14.5,0,0,1,51.29,25c.24,0,.47,0,.71,0a11,11,0,0,1,0,22Z" style="fill: #fff;fill-rule: evenodd"/>
    <path d="M62,44.3A13,13,0,1,0,40.24,30.51l0,0a1,1,0,0,0,1.76.92h0A11,11,0,0,1,63,36a10.86,10.86,0,0,1-1,4.56Z" style="fill: #fff;fill-rule: evenodd"/>
  </g>
</svg>
