<svg xmlns="http://www.w3.org/2000/svg" viewBox="0 0 54 44">
  <g>
    <path d="M32.53,39.1,27.8,36l4.7-3.13a1,1,0,0,0,.37-1.36,1,1,0,0,0-1.37-.37l-4.5,3V29a1,1,0,0,0-2,0v5.09l-4.5-3a1,1,0,0,0-1.37.37,1,1,0,0,0,.37,1.36L24.2,36,19.47,39.1a1,1,0,0,0-.37,1.37,1,1,0,0,0,1.37.36l4.53-3V43a1,1,0,0,0,2,0V37.82l4.53,3a1,1,0,0,0,1.37-.36A1,1,0,0,0,32.53,39.1Zm8,.9A1.5,1.5,0,1,0,42,41.5,1.5,1.5,0,0,0,40.5,40Z" style="fill: #fff;fill-rule: evenodd"/>
    <path d="M41.68,10A16.49,16.49,0,0,0,10,16h0a10,10,0,0,0,0,20h3a1,1,0,0,0,0-2H10a8,8,0,0,1,0-16,8.16,8.16,0,0,1,2.12.29A15.08,15.08,0,0,1,12,16.5,14.5,14.5,0,0,1,40.29,12c.24,0,.47,0,.71,0a11,11,0,0,1,0,22H39a1,1,0,0,0,0,2h2a13,13,0,0,0,.68-26Z" style="fill: #fff;fill-rule: evenodd"/>
    <path d="M51,31.3A13,13,0,1,0,29.24,17.51a.1.1,0,0,0,0,0,1,1,0,0,0,1.76.92h0A11,11,0,0,1,52,23a10.86,10.86,0,0,1-1,4.56Z" style="fill: #fff;fill-rule: evenodd"/>
  </g>
</svg>
