<svg xmlns="http://www.w3.org/2000/svg" viewBox="0 0 10.45 10.09"><title>snow</title><path d="M3.47,6.92a.13.13,0,0,0,0-.06m2.09.06a.14.14,0,0,0,0-.06" transform="translate(-0.53 -0.29)" style="fill:#387592"/><path d="M4.09,6.43H9.2a1.49,1.49,0,1,0-.36-2.92.14.14,0,0,1-.11,0,.17.17,0,0,1-.07-.1,2.16,2.16,0,0,0-4.29.33c0,.06,0,.12,0,.18a.19.19,0,0,1,0,.12.17.17,0,0,1-.12,0H4.09a1.19,1.19,0,0,0,0,2.38m0-2.67v0a2.45,2.45,0,0,1,4.84-.53l.28,0a1.78,1.78,0,1,1,0,3.55H4.09a1.48,1.48,0,0,1,0-3" transform="translate(-0.53 -0.29)" style="fill:#387592"/><path d="M2.3,2.19l.28,0A2.46,2.46,0,0,1,6.38.73a.16.16,0,0,1,0,.21.14.14,0,0,1-.2,0A2.16,2.16,0,0,0,2.84,2.41a.15.15,0,0,1-.06.09.13.13,0,0,1-.12,0,1.49,1.49,0,1,0-.51,2.92.15.15,0,0,1,.13.16.14.14,0,0,1-.15.13h0A1.77,1.77,0,0,1,2.3,2.19" transform="translate(-0.53 -0.29)" style="fill:#387592"/><path d="M3.65,8.11a.49.49,0,0,1-.49.49.49.49,0,0,1,0-1,.49.49,0,0,1,.49.48" transform="translate(-0.53 -0.29)" style="fill:#387592"/><path d="M2.61,9.9a.48.48,0,0,1-.48.49.49.49,0,1,1,0-1,.48.48,0,0,1,.48.49" transform="translate(-0.53 -0.29)" style="fill:#387592"/><path d="M6.35,8.11a.49.49,0,1,1-.48-.48.49.49,0,0,1,.48.48" transform="translate(-0.53 -0.29)" style="fill:#387592"/><path d="M5.32,9.9a.49.49,0,0,1-.49.49.49.49,0,0,1,0-1,.49.49,0,0,1,.49.49" transform="translate(-0.53 -0.29)" style="fill:#387592"/><path d="M9,8.11a.49.49,0,1,1-.49-.48A.49.49,0,0,1,9,8.11" transform="translate(-0.53 -0.29)" style="fill:#387592"/><path d="M8,9.9a.49.49,0,1,1-.48-.49A.49.49,0,0,1,8,9.9" transform="translate(-0.53 -0.29)" style="fill:#387592"/></svg>